<svg width="16" height="17" viewBox="0 0 16 17" fill="none" xmlns="http://www.w3.org/2000/svg">
<path d="M13.625 1.96875H12.2188V1.6875C12.2188 1.46372 12.1299 1.24911 11.9716 1.09088C11.8134 0.932645 11.5988 0.84375 11.375 0.84375C11.1512 0.84375 10.9366 0.932645 10.7784 1.09088C10.6201 1.24911 10.5312 1.46372 10.5312 1.6875V1.96875H5.46875V1.6875C5.46875 1.46372 5.37986 1.24911 5.22162 1.09088C5.06339 0.932645 4.84878 0.84375 4.625 0.84375C4.40122 0.84375 4.18661 0.932645 4.02838 1.09088C3.87014 1.24911 3.78125 1.46372 3.78125 1.6875V1.96875H2.375C2.00204 1.96875 1.64435 2.11691 1.38063 2.38063C1.11691 2.64435 0.96875 3.00204 0.96875 3.375V14.625C0.96875 14.998 1.11691 15.3556 1.38063 15.6194C1.64435 15.8831 2.00204 16.0312 2.375 16.0312H13.625C13.998 16.0312 14.3556 15.8831 14.6194 15.6194C14.8831 15.3556 15.0312 14.998 15.0312 14.625V3.375C15.0312 3.00204 14.8831 2.64435 14.6194 2.38063C14.3556 2.11691 13.998 1.96875 13.625 1.96875ZM3.78125 3.65625C3.78125 3.88003 3.87014 4.09464 4.02838 4.25287C4.18661 4.41111 4.40122 4.5 4.625 4.5C4.84878 4.5 5.06339 4.41111 5.22162 4.25287C5.37986 4.09464 5.46875 3.88003 5.46875 3.65625H10.5312C10.5312 3.88003 10.6201 4.09464 10.7784 4.25287C10.9366 4.41111 11.1512 4.5 11.375 4.5C11.5988 4.5 11.8134 4.41111 11.9716 4.25287C12.1299 4.09464 12.2188 3.88003 12.2188 3.65625H13.3438V5.34375H2.65625V3.65625H3.78125ZM2.65625 14.3438V7.03125H13.3438V14.3438H2.65625ZM9.125 9C9.125 9.2225 9.05902 9.44001 8.9354 9.62502C8.81179 9.81002 8.63609 9.95422 8.43052 10.0394C8.22495 10.1245 7.99875 10.1468 7.78052 10.1034C7.56229 10.06 7.36184 9.95283 7.2045 9.7955C7.04717 9.63816 6.94002 9.43771 6.89662 9.21948C6.85321 9.00125 6.87549 8.77505 6.96064 8.56948C7.04578 8.36391 7.18998 8.18821 7.37498 8.0646C7.55999 7.94098 7.7775 7.875 8 7.875C8.29837 7.875 8.58452 7.99353 8.7955 8.2045C9.00647 8.41548 9.125 8.70163 9.125 9ZM12.5 9C12.5 9.2225 12.434 9.44001 12.3104 9.62502C12.1868 9.81002 12.0111 9.95422 11.8055 10.0394C11.6 10.1245 11.3738 10.1468 11.1555 10.1034C10.9373 10.06 10.7368 9.95283 10.5795 9.7955C10.4222 9.63816 10.315 9.43771 10.2716 9.21948C10.2282 9.00125 10.2505 8.77505 10.3356 8.56948C10.4208 8.36391 10.565 8.18821 10.75 8.0646C10.935 7.94098 11.1525 7.875 11.375 7.875C11.6734 7.875 11.9595 7.99353 12.1705 8.2045C12.3815 8.41548 12.5 8.70163 12.5 9ZM5.75 12.375C5.75 12.5975 5.68402 12.815 5.5604 13C5.43679 13.185 5.26109 13.3292 5.05552 13.4144C4.84995 13.4995 4.62375 13.5218 4.40552 13.4784C4.18729 13.435 3.98684 13.3278 3.8295 13.1705C3.67217 13.0132 3.56502 12.8127 3.52162 12.5945C3.47821 12.3762 3.50049 12.15 3.58564 11.9445C3.67078 11.7389 3.81498 11.5632 3.99998 11.4396C4.18499 11.316 4.4025 11.25 4.625 11.25C4.92337 11.25 5.20952 11.3685 5.4205 11.5795C5.63147 11.7905 5.75 12.0766 5.75 12.375ZM9.125 12.375C9.125 12.5975 9.05902 12.815 8.9354 13C8.81179 13.185 8.63609 13.3292 8.43052 13.4144C8.22495 13.4995 7.99875 13.5218 7.78052 13.4784C7.56229 13.435 7.36184 13.3278 7.2045 13.1705C7.04717 13.0132 6.94002 12.8127 6.89662 12.5945C6.85321 12.3762 6.87549 12.15 6.96064 11.9445C7.04578 11.7389 7.18998 11.5632 7.37498 11.4396C7.55999 11.316 7.7775 11.25 8 11.25C8.29837 11.25 8.58452 11.3685 8.7955 11.5795C9.00647 11.7905 9.125 12.0766 9.125 12.375ZM12.5 12.375C12.5 12.5975 12.434 12.815 12.3104 13C12.1868 13.185 12.0111 13.3292 11.8055 13.4144C11.6 13.4995 11.3738 13.5218 11.1555 13.4784C10.9373 13.435 10.7368 13.3278 10.5795 13.1705C10.4222 13.0132 10.315 12.8127 10.2716 12.5945C10.2282 12.3762 10.2505 12.15 10.3356 11.9445C10.4208 11.7389 10.565 11.5632 10.75 11.4396C10.935 11.316 11.1525 11.25 11.375 11.25C11.6734 11.25 11.9595 11.3685 12.1705 11.5795C12.3815 11.7905 12.5 12.0766 12.5 12.375Z" fill="#8CC63F"/>
</svg>
