<?xml version="1.0" encoding="utf-8"?>
<!-- Generator: Adobe Illustrator 23.0.1, SVG Export Plug-In . SVG Version: 6.00 Build 0)  -->
<svg version="1.1" id="Layer_1" xmlns="http://www.w3.org/2000/svg" xmlns:xlink="http://www.w3.org/1999/xlink" x="0px" y="0px"
	 viewBox="0 0 20 20" style="enable-background:new 0 0 20 20;" xml:space="preserve">
<style type="text/css">
	.st0{fill:#005E8A;}
</style>
<path class="st0" d="M13.7,10.7c0.1-0.1,0.2-0.2,0.2-0.3c0.1-0.2,0.1-0.5,0-0.8c0-0.1-0.1-0.2-0.2-0.3l-3-3C10.5,6.1,10.3,6,10,6
	S9.5,6.1,9.3,6.3C9.1,6.5,9,6.7,9,7s0.1,0.5,0.3,0.7L10.6,9H7C6.7,9,6.5,9.1,6.3,9.3C6.1,9.5,6,9.7,6,10c0,0.3,0.1,0.5,0.3,0.7
	C6.5,10.9,6.7,11,7,11h3.6l-1.3,1.3c-0.1,0.1-0.2,0.2-0.2,0.3C9,12.7,9,12.9,9,13s0,0.3,0.1,0.4c0.1,0.1,0.1,0.2,0.2,0.3
	c0.1,0.1,0.2,0.2,0.3,0.2C9.7,14,9.9,14,10,14c0.1,0,0.3,0,0.4-0.1c0.1-0.1,0.2-0.1,0.3-0.2L13.7,10.7z M20,10c0-2-0.6-3.9-1.7-5.6
	c-1.1-1.6-2.7-2.9-4.5-3.7C12,0,10-0.2,8,0.2C6.1,0.6,4.3,1.5,2.9,2.9C1.5,4.3,0.6,6.1,0.2,8S0,12,0.8,13.8c0.8,1.8,2,3.4,3.7,4.5
	C6.1,19.4,8,20,10,20c2.7,0,5.2-1.1,7.1-2.9c0.9-0.9,1.7-2,2.2-3.2C19.7,12.6,20,11.3,20,10z M2,10c0-1.6,0.5-3.1,1.3-4.4
	c0.9-1.3,2.1-2.3,3.6-2.9s3.1-0.8,4.6-0.5c1.6,0.3,3,1.1,4.1,2.2c1.1,1.1,1.9,2.5,2.2,4.1c0.3,1.6,0.2,3.2-0.5,4.6
	c-0.6,1.5-1.6,2.7-2.9,3.6C13.1,17.5,11.6,18,10,18c-2.1,0-4.2-0.8-5.7-2.3C2.8,14.2,2,12.1,2,10z"/>
</svg>
