<?xml version="1.0" encoding="utf-8"?>
<!-- Generator: Adobe Illustrator 23.0.0, SVG Export Plug-In . SVG Version: 6.00 Build 0)  -->
<svg version="1.1" id="Camada_1" xmlns="http://www.w3.org/2000/svg" xmlns:xlink="http://www.w3.org/1999/xlink" x="0px" y="0px"
	 viewBox="0 0 184 50" style="enable-background:new 0 0 184 50;" xml:space="preserve">
<style type="text/css">
	.st0{fill:#FFFFFF;}
	.st1{fill:#8CC640;}
</style>
<path class="st0" d="M7.7,0H176c4.3,0,7.7,3.5,7.7,7.7v34.5c0,4.3-3.5,7.7-7.7,7.7H7.7C3.5,50,0,46.5,0,42.3V7.7C0,3.5,3.5,0,7.7,0z
	"/>
<path class="st1" d="M36,25.6c0-2.1,0.5-3.8,1.7-5.2c0.9-1,2-1.6,3.3-2c1.2-0.3,2.3,0,3.4,0.4c0.2,0.1,0.3,0.1,0.5,0.2
	c0.8,0.4,1.5,0.4,2.3,0c0.5-0.2,1-0.3,1.5-0.5c1.2-0.4,2.4-0.4,3.5-0.1c1.2,0.3,2.1,1,2.9,1.9c0.2,0.2,0.1,0.3,0,0.4
	c-0.4,0.3-0.8,0.6-1.1,1c-0.9,1.2-1.5,2.5-1.2,4c0.1,0.5,0.2,1.1,0.5,1.6c0.5,0.9,1.1,1.6,2,2.1c0.1,0,0.2,0.1,0.3,0.1
	c0.4,0.2,0.5,0.4,0.3,0.8c-0.3,0.6-0.5,1.1-0.8,1.7c-0.6,1-1.3,1.9-2,2.8c-0.6,0.7-1.4,1.1-2.4,1.2c-0.4,0.1-0.9-0.1-1.3-0.2
	c-0.5-0.1-1-0.3-1.5-0.5c-1.3-0.4-2.5-0.2-3.7,0.3c-0.2,0.1-0.4,0.1-0.5,0.2c-1.4,0.6-2.5,0.1-3.5-0.8c-1.5-1.5-2.6-3.3-3.3-5.3
	C36.4,28.4,36.1,26.9,36,25.6z"/>
<path class="st1" d="M76.2,36.5c0-1.6,0-3.3,0-4.9c0-0.5-0.1-0.9-0.1-1.4c0-0.4,0-0.5,0.5-0.5c0.4,0,0.7,0,1.1,0
	c0.3,0,0.3,0.1,0.4,0.4c0,0.3,0,0.6,0.1,0.9c0.2-0.2,0.5-0.4,0.7-0.6c0.6-0.5,1.3-0.7,2.1-0.8c1-0.1,1.9,0.2,2.7,0.9
	c0.7,0.7,1.2,1.5,1.4,2.5c0.1,0.3,0.1,0.6,0.1,0.9c0,1.8-0.4,3.4-2.1,4.4c-1.4,0.9-3.2,0.8-4.4-0.3c-0.1-0.1-0.1-0.1-0.2-0.2
	c0,0.1-0.1,0.2-0.1,0.3c0,1.1,0,2.2,0,3.3c0,0.2,0,0.4,0,0.5c0,0.1-0.2,0.3-0.3,0.3c-0.5,0-1,0-1.5,0c-0.1,0-0.2-0.2-0.3-0.3
	c0-0.2,0-0.3,0-0.5C76.2,39.9,76.2,38.2,76.2,36.5z M78.3,34.4c0,0.3,0,0.6,0,1c0.1,0.9,0.7,1.7,1.6,2c0.8,0.2,1.9,0,2.4-0.9
	c0.8-1.3,0.8-2.7,0.1-4.1c-0.5-0.9-1.3-1.2-2.2-1.1c-0.8,0.1-1.3,0.5-1.6,1.3C78.2,33.1,78.3,33.7,78.3,34.4z"/>
<path class="st1" d="M86.8,37c0-1.1,0-2.2,0-3.3c0-1.1-0.1-2.2-0.1-3.2c0-0.1,0-0.3,0-0.4c0-0.1,0.2-0.3,0.3-0.3c0.4,0,0.9,0,1.3,0
	c0.2,0,0.3,0.1,0.3,0.3c0,0.1,0,0.2,0,0.3c0,0.2,0.1,0.4,0.1,0.6c0.2-0.1,0.3-0.3,0.5-0.4c0.6-0.7,1.5-1,2.4-1c0.6,0,1.1,0,1.6,0.2
	c0.9,0.4,1.6,1.1,1.9,2c0.7,1.9,0.7,3.7-0.5,5.4c-0.6,0.8-1.4,1.3-2.4,1.6c-1.2,0.3-2.3,0-3.2-0.9c0,0-0.1-0.1-0.1-0.1
	c0,0.1,0,0.1,0,0.2c0,0.6,0,1.2,0,1.8c0,0.6,0,1.3,0,1.9c0,0.5-0.1,0.6-0.5,0.6c-0.4,0-0.7,0-1.1,0c-0.4,0-0.4,0-0.4-0.4
	c0-0.9,0-1.8,0-2.7C86.8,38.5,86.8,37.7,86.8,37z M88.9,34.3c0,0.3,0,0.6,0,1c0.1,1.5,1.4,2.4,2.8,2c0.9-0.3,1.4-0.9,1.6-1.7
	c0.3-0.9,0.2-1.8-0.1-2.7c-0.4-1.1-1.3-1.6-2.5-1.4c-1,0.1-1.7,1.1-1.8,2.1C88.8,33.7,88.9,34,88.9,34.3z"/>
<path class="st1" d="M69,26.4c0.3,0,0.6,0,0.9,0c0.4,0,0.5,0.1,0.6,0.5c0.7,2.2,1.5,4.4,2.2,6.6c0.5,1.5,1,3.1,1.5,4.6
	c0.1,0.2,0.1,0.3,0.1,0.5c0,0-0.1,0.2-0.1,0.2c-0.6,0-1.2,0-1.8,0c-0.2,0-0.3-0.2-0.4-0.4c-0.3-0.9-0.6-1.8-0.9-2.7
	c-0.1-0.5-0.1-0.5-0.6-0.5c-1.1,0-2.2,0-3.3,0c-0.3,0-0.5,0.1-0.6,0.4c-0.3,0.9-0.6,1.8-0.8,2.7c-0.1,0.3-0.2,0.4-0.5,0.4
	c-0.5,0-0.9,0-1.4,0c-0.3,0-0.4,0-0.2-0.4c0.6-1.7,1.1-3.5,1.7-5.2c0.7-2,1.3-4,2-6.1c0.2-0.7,0.2-0.7,0.9-0.7
	C68.6,26.4,68.8,26.4,69,26.4z M69,33.5c0.4,0,0.8,0,1.3,0c0.3,0,0.3-0.1,0.2-0.4c-0.3-0.9-0.6-1.8-0.9-2.7c-0.2-0.7-0.4-1.4-0.6-2
	c0-0.1-0.1-0.1-0.1-0.2c0,0.1-0.1,0.1-0.1,0.2c-0.3,1-0.6,2.1-0.9,3.1c-0.1,0.5-0.3,1-0.5,1.5c-0.1,0.5-0.1,0.5,0.4,0.5
	C68.3,33.5,68.7,33.5,69,33.5z"/>
<path class="st1" d="M106.9,39.4c-1,0-2-0.1-2.9-0.4c-0.2-0.1-0.4-0.1-0.5-0.2c-0.2-0.1-0.3-0.2-0.2-0.4c0.1-0.4,0.2-0.7,0.3-1.1
	c0.1-0.3,0.2-0.3,0.4-0.2c1.1,0.6,2.4,0.7,3.6,0.6c0.7,0,1.3-0.4,1.7-1c0.5-0.7,0.2-1.9-0.6-2.3c-0.7-0.3-1.4-0.6-2.1-0.9
	c-0.9-0.4-1.8-0.8-2.5-1.6c-0.7-0.7-1-2.1-0.5-3.2c0.5-0.9,1.2-1.5,2.2-1.9c0.7-0.2,1.4-0.4,2.1-0.4c1,0,2,0.1,2.9,0.4
	c0.4,0.2,0.5,0.3,0.3,0.7c0,0,0,0.1,0,0.1c-0.1,0.3-0.3,0.6-0.4,0.9c-0.3-0.1-0.6-0.2-0.9-0.3c-1-0.3-1.9-0.4-2.9-0.1
	c-0.4,0.1-0.7,0.3-1,0.6c-0.5,0.6-0.4,1.4,0.1,1.9c0.5,0.4,1,0.7,1.6,0.9c1,0.4,2.1,0.8,2.9,1.5c0.8,0.6,1.1,1.3,1.2,2.3
	c0.1,1.9-1,3-2.4,3.5C108.7,39.3,107.8,39.5,106.9,39.4z"/>
<path class="st1" d="M125.5,39.5c-0.9,0-1.8-0.2-2.6-0.7c-1.1-0.6-1.8-1.6-2.1-2.8c-0.3-1-0.2-2,0.2-3c0.6-1.6,1.8-2.5,3.4-2.9
	c0.9-0.2,1.8-0.2,2.8,0c1.6,0.4,2.8,1.3,3.3,3c0.5,1.6,0.3,3.1-0.6,4.4c-0.7,1-1.6,1.6-2.8,1.8C126.5,39.4,126,39.4,125.5,39.5z
	 M123,34.7c0,0.8,0.2,1.5,0.6,2.1c1,1.6,3.3,1.4,4.1-0.1c0.7-1.3,0.8-2.7,0-4.1c-0.8-1.5-2.9-1.5-3.8-0.5
	C123.3,32.9,123,33.7,123,34.7z"/>
<path class="st1" d="M144.6,35.1c-1,0-2,0-2.9,0c-0.4,0-0.4,0.1-0.4,0.4c0.1,0.8,0.5,1.4,1.2,1.8c0.5,0.3,1,0.4,1.6,0.4
	c0.9,0,1.8,0,2.6-0.3c0.4-0.1,0.5,0,0.6,0.4c0.3,1,0.2,0.9-0.7,1.2c-0.9,0.3-1.9,0.4-2.9,0.3c-1.1-0.1-2.2-0.4-3.1-1.1
	c-0.9-0.7-1.4-1.6-1.5-2.7c-0.1-1,0-2,0.4-2.9c0.6-1.3,1.5-2.2,2.9-2.6c1.1-0.3,2.1-0.3,3.2,0.1c1.1,0.4,1.8,1.1,2.3,2.2
	c0.3,0.8,0.3,1.5,0.3,2.3c0,0.4,0,0.4-0.4,0.4C146.6,35.1,145.6,35.1,144.6,35.1z M143.4,33.6c0.6,0,1.2,0,1.8,0
	c0.6,0,0.6-0.1,0.6-0.7c0-0.1-0.1-0.2-0.1-0.3c-0.5-1.3-1.7-1.6-2.9-1.2c-0.8,0.3-1.2,1-1.5,1.7c-0.1,0.3,0,0.4,0.3,0.4
	C142.2,33.7,142.8,33.6,143.4,33.6z"/>
<path class="st1" d="M114.7,34.5c0-0.8,0-1.6,0-2.4c0-0.4,0-0.4-0.4-0.4c0,0,0,0-0.1,0c-0.3,0-0.6-0.1-0.9-0.1c0-0.4,0-0.9,0-1.3
	c0-0.1,0.2-0.2,0.3-0.2c0.3,0,0.5,0,0.8,0c0.3,0,0.4-0.1,0.4-0.4c0-0.3,0-0.5,0-0.8c0-0.3,0.1-0.5,0.4-0.5c0.5-0.1,1-0.2,1.6-0.4
	c0.2-0.1,0.3,0,0.3,0.2c0,0.4,0,0.8,0,1.2c0,0.8,0,0.7,0.8,0.7c0.4,0,0.9,0,1.3,0c0.3,0,0.4,0.1,0.4,0.4c0.1,1.3,0.1,1.2-1.2,1.3
	c-0.4,0-0.9,0.1-1.3,0.1c0,0.4,0,0.8-0.1,1.2c0,1,0,2,0,3c0,0.2,0,0.5,0.1,0.7c0.2,0.6,0.8,1,1.4,0.9c0,0,0.1,0,0.1,0
	c0.6-0.1,0.7,0,0.7,0.6c0,0,0,0.1,0,0.1c0,1,0.1,0.7-0.8,0.9c-0.7,0.1-1.4,0.1-2.1-0.1c-0.7-0.3-1.3-0.8-1.5-1.5
	c-0.1-0.4-0.1-0.8-0.2-1.2C114.7,35.8,114.7,35.2,114.7,34.5z"/>
<path class="st1" d="M63.4,13.4c0-1.4,0-2.8,0-4.1c0-0.5,0-0.5,0.5-0.5c1,0,2,0,3,0c1.8,0.1,3.4,1.3,3.7,3.1
	c0.3,1.3,0.3,2.5-0.2,3.7c-0.5,1.3-1.5,2-2.8,2.3c-1.3,0.3-2.6,0.1-3.9,0.2c-0.3,0-0.3-0.2-0.3-0.4c0-0.8,0-1.7,0-2.5
	C63.4,14.6,63.4,14,63.4,13.4z M64.5,13.4c0,1,0,2.1,0,3.1c0,0.6,0,0.7,0.7,0.7c0.6,0,1.3,0,1.9-0.2c1.2-0.3,2.1-1,2.4-2.3
	c0.2-0.8,0.2-1.6,0.1-2.3c-0.3-1.5-0.9-2.3-2.3-2.6c-0.7-0.2-1.4-0.1-2.2-0.2c-0.5,0-0.6,0.1-0.6,0.6C64.4,11.3,64.5,12.4,64.5,13.4
	z"/>
<path class="st1" d="M132.5,34.7c0-1.3,0-2.7,0-4c0-0.6,0-0.6,0.6-0.6c0,0,0.1,0,0.1,0c1.3,0,1.3,0,1.4,1.3c0,0.1,0,0.1,0,0.2
	c0.1-0.1,0.1-0.1,0.2-0.2c0.3-0.5,0.6-0.9,1.1-1.1c0.5-0.3,1.1-0.4,1.8-0.4c0.1,0,0.3,0.2,0.3,0.3c0,0.4,0,0.9,0,1.3
	c0,0.3-0.1,0.3-0.4,0.3c-0.3,0-0.7,0-1,0.1c-1.1,0.3-1.7,1.1-1.7,2.2c0,1.4,0,2.8,0,4.1c0,0.9,0,0.9-0.9,0.9c-0.5,0-0.9-0.1-1.4-0.1
	c0-0.4-0.1-0.9-0.1-1.3C132.5,36.8,132.5,35.7,132.5,34.7C132.5,34.7,132.5,34.7,132.5,34.7z"/>
<path class="st1" d="M81.9,16.1c0-1.4,0-2.8,0-4.2c0-0.1,0-0.3,0-0.4c0-0.3,0.1-0.4,0.4-0.4c0.1,0,0.1,0,0.2,0
	c0.3,0,0.4,0.1,0.4,0.4c0,0.1,0,0.1,0,0.2c0,0.1,0,0.1,0.1,0.2c0.1,0,0.1-0.1,0.2-0.1c0.3-0.3,0.7-0.6,1.1-0.8
	c1.7-0.4,3.1,0.3,3.6,2c0.3,1,0.3,2,0,3.1c-0.5,2.1-3,2.8-4.6,1.4c-0.1,0-0.1-0.1-0.2-0.1c0,0-0.1,0-0.1,0c0,0,0,0.1,0,0.1
	c0,1.1,0,2.1,0,3.2c0,0.5,0,0.5-0.5,0.5c-0.1,0-0.2,0-0.3,0c-0.3,0-0.4-0.1-0.4-0.4c0-0.5,0-1,0-1.6C81.9,18.2,81.9,17.2,81.9,16.1z
	 M85.1,17.3c0.7,0,1.2-0.3,1.5-0.9c0.6-1.1,0.5-2.2,0.2-3.3c-0.3-0.8-0.9-1.2-1.7-1.2c-1,0.1-1.5,0.4-1.8,1.2
	c-0.3,0.9-0.2,1.8,0,2.8C83.5,16.9,84.1,17.3,85.1,17.3z"/>
<path class="st1" d="M118.4,14.8c-0.6,0-1.3,0-1.9,0c-0.4,0-0.5,0.1-0.4,0.5c0.2,1.4,1.2,2.2,2.7,2c0.5-0.1,0.9-0.2,1.4-0.3
	c0.3-0.1,0.3,0,0.3,0.3c0,0.5,0,0.5-0.5,0.7c-0.9,0.3-1.9,0.4-2.8,0.1c-1.1-0.3-1.8-1.1-2.1-2.1c-0.3-1-0.2-2,0.1-3
	c0.6-1.9,2.8-2.6,4.5-1.5c0.7,0.5,1,1.2,1.1,2c0.2,1.3,0.1,1.4-1.2,1.4C119.2,14.8,118.8,14.8,118.4,14.8z M117.9,13.9
	c0.4,0,0.9,0,1.3,0c0.4,0,0.4-0.1,0.4-0.5c-0.1-1.2-1.2-1.9-2.3-1.5c-0.8,0.3-1,1-1.2,1.6c-0.1,0.2,0,0.3,0.2,0.3
	C116.8,13.9,117.3,13.9,117.9,13.9z"/>
<path class="st1" d="M142.1,15.4c0,0.8,0,1.5,0,2.3c0,0.2,0,0.4-0.3,0.4c-0.4,0-0.5,0-0.6-0.3c0-0.1-0.1-0.2-0.1-0.4
	c0-0.1-0.1-0.2-0.3-0.1c-0.3,0.2-0.5,0.5-0.8,0.6c-0.7,0.3-1.5,0.3-2.2,0.1c-0.8-0.2-1.2-0.8-1.3-1.6c-0.1-1,0.3-1.7,1-2.1
	c0.7-0.4,1.4-0.4,2.2-0.5c0.2,0,0.5,0,0.7,0c0.6,0,0.7-0.1,0.6-0.7c-0.1-0.8-0.5-1.3-1-1.3c-0.4,0-0.8,0-1.2,0.1
	c-0.3,0.1-0.6,0.2-0.9,0.3c-0.4,0.1-0.4-0.2-0.5-0.4c-0.1-0.2-0.1-0.3,0.1-0.4c1.1-0.5,2.2-0.7,3.4-0.3c0.9,0.3,1.2,1.1,1.2,1.9
	C142.1,13.8,142.1,14.6,142.1,15.4z M138.9,17.3c1.7,0,2.1-1.1,2.2-2.4c0-0.2-0.1-0.3-0.3-0.3c-0.8,0-1.6,0.1-2.4,0.3
	c-0.5,0.2-0.8,0.7-0.7,1.3c0,0.6,0.2,0.8,0.8,1C138.6,17.3,138.8,17.3,138.9,17.3z"/>
<path class="st1" d="M89.6,14.6c-0.1-0.9,0.1-1.6,0.5-2.3c0.5-0.8,1.2-1.3,2.1-1.4c1.1-0.1,2.2,0.2,3,1.1c0.4,0.5,0.6,1.1,0.7,1.7
	c0.1,0.7,0.1,1.4-0.1,2.1c-0.3,1.3-1.1,2-2.3,2.3c-1.6,0.4-3-0.3-3.7-1.8c-0.1-0.2-0.2-0.5-0.2-0.8C89.6,15.2,89.6,14.9,89.6,14.6z
	 M90.6,14.7c0.1,0.5,0.2,1.1,0.4,1.6c0.3,0.8,1,1,1.8,1c0.8,0,1.5-0.3,1.7-1.1c0.4-1,0.4-2,0.1-2.9c-0.3-0.9-0.8-1.3-1.8-1.4
	c-0.9-0.1-1.7,0.5-2,1.3C90.7,13.7,90.7,14.1,90.6,14.7z"/>
<path class="st1" d="M97.7,14.6c0-1,0-2,0-3c0-0.2,0-0.4,0.3-0.4c0.4,0,0.5,0,0.6,0.3c0,0.1,0.1,0.1,0.1,0.2
	c0.1,0.4,0.2,0.4,0.4,0.1c0.7-0.9,2.6-1,3.7-0.2c0.4,0.3,0.7,0.8,0.7,1.3c0,1.7,0,3.3,0,5c0,0.3-0.1,0.4-0.4,0.3c-0.1,0-0.2,0-0.3,0
	c-0.3,0-0.4-0.1-0.4-0.4c0-0.4,0-0.9,0-1.3c0-0.9,0-1.8,0-2.7c0-0.6-0.1-1.2-0.6-1.5c-0.7-0.4-1.4-0.3-2,0c-0.4,0.2-0.7,0.6-0.8,1
	c-0.1,0.4-0.2,0.9-0.2,1.4c0,1,0,2.1,0,3.1c0,0.1-0.1,0.4-0.2,0.4c-0.3,0-0.5,0-0.8,0c-0.1,0-0.1-0.3-0.1-0.4
	C97.7,16.6,97.7,15.6,97.7,14.6z"/>
<path class="st1" d="M129.1,14.6c0-1,0-2,0-3c0-0.2,0-0.4,0.3-0.5c0.4,0,0.5,0,0.6,0.4c0,0.1,0.1,0.2,0.1,0.3c0.1,0.2,0.1,0.1,0.3,0
	c1-0.9,2.1-1,3.3-0.6c0.7,0.3,1.2,0.9,1.2,1.7c0,1.6,0,3.2,0,4.8c0,0.3-0.1,0.4-0.4,0.4c-0.6,0-0.7,0-0.7-0.6c0-1.3,0-2.6,0-3.9
	c0-0.2,0-0.5-0.1-0.7c-0.3-0.9-1-1.1-1.9-1c-0.9,0.1-1.4,0.6-1.5,1.4c-0.1,0.4-0.1,0.8-0.1,1.2c0,1,0,2.1,0,3.1c0,0.4,0,0.4-0.5,0.4
	c-0.5,0-0.5,0-0.5-0.5C129.1,16.6,129.1,15.6,129.1,14.6z"/>
<path class="st1" d="M50.9,13.2c-0.2,2.2-1.6,4.3-4.1,4.7c-0.8,0.1-1,0.2-0.9-0.9c0.4-2.5,2.4-4.1,4.5-4.5c0.3-0.1,0.4,0.1,0.4,0.3
	C50.9,12.9,50.9,13,50.9,13.2z"/>
<path class="st1" d="M77.5,18.3c-0.5-0.1-1-0.1-1.5-0.3c-0.5-0.1-0.7-0.6-0.5-1.1c0,0,0.2-0.1,0.2,0c0.4,0.1,0.8,0.3,1.3,0.4
	c0.5,0.1,1.1,0.1,1.6-0.1c0.4-0.1,0.7-0.3,0.8-0.8c0.1-0.5-0.2-0.8-0.5-1c-0.6-0.3-1.3-0.6-1.9-0.9c-0.2-0.1-0.4-0.2-0.6-0.3
	c-1-0.5-1-2.4,0.2-2.9c1.2-0.5,2.4-0.4,3.6,0c0.2,0.1,0.3,0.2,0.2,0.4c-0.3,0.6-0.1,0.6-0.7,0.4c-0.5-0.1-1-0.3-1.6-0.3
	c-0.3,0-0.6,0.1-0.9,0.2c-0.5,0.3-0.6,0.9-0.1,1.3c0.4,0.3,1,0.5,1.4,0.7c0.5,0.3,1.1,0.4,1.6,0.8c0.7,0.7,0.7,2.1-0.1,2.7
	C79.1,18.2,78.3,18.3,77.5,18.3z"/>
<path class="st1" d="M111.1,18.1c-0.6,0-0.6,0.1-0.9-0.6c-0.7-1.9-1.4-3.7-2.2-5.6c-0.1-0.2-0.1-0.5-0.1-0.7c0.3,0,0.5-0.1,0.8,0
	c0.1,0,0.3,0.2,0.4,0.4c0.2,0.5,0.4,1,0.6,1.5c0.4,1.2,0.9,2.4,1.3,3.7c0,0.1,0.1,0.1,0.1,0.2c0-0.1,0-0.1,0.1-0.2
	c0.6-1.7,1.2-3.4,1.8-5c0.2-0.6,0.2-0.6,0.8-0.6c0.1,0,0.2,0,0.3,0c0.1,0,0.2,0.1,0.1,0.2c-0.4,1-0.8,2-1.1,3
	c-0.4,1-0.7,1.9-1.1,2.9c0,0.1-0.1,0.2-0.1,0.3C111.7,18,111.5,18.2,111.1,18.1z"/>
<path class="st1" d="M122.5,13c0-1.4,0-2.9,0-4.3c0-0.2,0-0.5,0.1-0.5c0.2-0.1,0.5,0,0.8,0c0,0,0.1,0.1,0.1,0.2c0,0.1,0,0.3,0,0.4
	c0,2.9,0,5.9,0,8.8c0,0.6,0,0.6-0.5,0.6c-0.5,0-0.5,0-0.5-0.5C122.5,16.1,122.5,14.5,122.5,13z"/>
<path class="st1" d="M73.7,14.6c0,1,0,2,0,3c0,0.4,0,0.4-0.4,0.4c0,0-0.1,0-0.1,0c-0.6,0-0.6,0-0.6-0.6c0-1.9,0-3.9,0-5.8
	c0-0.2,0.1-0.5,0.1-0.5c0.3,0,0.6,0,0.9,0c0.1,0,0.1,0.3,0.1,0.4C73.7,12.6,73.7,13.6,73.7,14.6z"/>
<path class="st1" d="M105.6,14.5c0-1,0-2,0-3c0-0.1,0.1-0.4,0.2-0.4c0.3,0,0.5,0,0.8,0c0,0,0.1,0.2,0.1,0.3c0,0.5,0,1.1,0,1.6
	c0,1.4,0,2.9,0,4.3c0,0.7,0,0.7-0.6,0.6c-0.4,0-0.4,0-0.4-0.5c0-0.9,0-1.7,0-2.6C105.6,14.9,105.6,14.7,105.6,14.5z"/>
<path class="st1" d="M107.6,8.2c0,0,0.2,0,0.4,0c-0.1,0.2-0.2,0.4-0.3,0.5c-0.4,0.5-0.8,0.9-1.3,1.3c-0.1,0.1-0.3,0.1-0.5,0.2
	c-0.3,0-0.4-0.1-0.3-0.4c0.3-0.5,0.6-1,0.9-1.5c0.1-0.1,0.2-0.2,0.4-0.2C107.1,8.1,107.3,8.2,107.6,8.2z"/>
<path class="st1" d="M73.7,9.3c0,0.4-0.2,0.7-0.6,0.7c-0.4,0-0.6-0.3-0.6-0.8c0-0.5,0.1-0.6,0.6-0.6C73.6,8.6,73.7,8.7,73.7,9.3z"/>
</svg>
