<?xml version="1.0" encoding="utf-8"?>
<!-- Generator: Adobe Illustrator 23.0.0, SVG Export Plug-In . SVG Version: 6.00 Build 0)  -->
<svg version="1.1" id="Camada_1" xmlns="http://www.w3.org/2000/svg" xmlns:xlink="http://www.w3.org/1999/xlink" x="0px" y="0px"
	 viewBox="0 0 184 50" style="enable-background:new 0 0 184 50;" xml:space="preserve">
<style type="text/css">
	.st0{fill:#FFFFFF;}
	.st1{fill:#8CC640;}
</style>
<path class="st0" d="M7.8,0h168.2c4.3,0,7.7,3.5,7.7,7.7v34.5c0,4.3-3.5,7.7-7.7,7.7H7.8c-4.3,0-7.7-3.5-7.7-7.7V7.7
	C0.1,3.5,3.5,0,7.8,0z"/>
<path class="st1" d="M29,12.4c4,3.9,7.9,7.8,11.9,11.7c-0.1,0.1-0.2,0.3-0.4,0.4c-0.7,0.7-1.4,1.4-2.1,2.1c-2.8,2.9-5.6,5.7-8.5,8.6
	c-0.7,0.7-0.9,0.6-1.4-0.2c-0.3-0.5-0.5-1-0.5-1.6c0-6.3,0-12.6,0-18.9C28,13.7,28.3,12.9,29,12.4z"/>
<path class="st1" d="M68.5,24c-0.5,0.5-0.9,1-1.4,1.6c-0.1-0.1-0.2-0.1-0.3-0.2c-0.9-0.8-1.8-1.2-3-1.3c-1.5-0.2-2.9,0.1-4,1
	c-2.8,2-3.4,5.8-1.3,8.6c1.7,2.3,4.7,3.2,7.4,1.8c1.3-0.7,2.2-1.7,2.4-3.2c0-0.2,0-0.4,0-0.7c-0.9,0-1.7,0-2.5,0c-0.8,0-1.7,0-2.5,0
	c-0.2-0.8-0.1-1.4-0.1-2.1c0.5-0.2,6.4-0.2,7.4-0.1c0.4,2.3,0,4.5-1.6,6.3c-2.1,2.3-4.7,2.9-7.7,2.2c-2.1-0.5-3.8-1.5-5-3.2
	c-0.8-1.2-1.3-2.5-1.4-3.9c-0.2-3.2,1-5.8,3.6-7.6c2.9-2.1,6.7-1.9,9.5,0.3C68.1,23.6,68.3,23.8,68.5,24z"/>
<path class="st1" d="M101.7,28.8c0.1-0.3,0.1-0.5,0.1-0.7c0.7,0,1.3,0,1.9,0c0,0.2,0.1,0.4,0.1,0.5c0,3.1,0,6.3,0,9.4
	c0,1.6-0.7,2.9-1.9,3.9c-0.9,0.7-1.9,1-2.9,1c-1.9-0.1-3.5-1-4.4-2.8c0-0.1-0.1-0.2-0.1-0.3c0.6-0.3,1.2-0.5,1.9-0.8
	c0.2,0.3,0.3,0.5,0.5,0.7c1.1,1.5,2.7,1.6,3.9,0.6c0.7-0.6,0.9-1.4,1-2.2c0-0.3,0-0.6,0-0.9c-0.1,0.1-0.2,0.1-0.3,0.2
	c-1.2,1.2-3.2,1.3-4.7,0.5c-3.2-1.7-3.7-5.7-1.9-8.1c1.2-1.5,2.7-2.2,4.7-1.9c0.5,0.1,0.9,0.4,1.4,0.6
	C101.3,28.5,101.4,28.7,101.7,28.8z M99.5,35.9c0.6,0.1,1.1-0.2,1.6-0.6c1.4-1.5,1.5-3.3,0.1-4.8c-1.1-1.2-2.9-1.1-3.9,0.3
	c-0.5,0.7-0.8,1.5-0.7,2.4C96.8,35.1,98.3,36,99.5,35.9z"/>
<path class="st1" d="M125.5,37.9c-0.8,0-1.4,0-2.2,0c0-4.6,0-9.2,0-13.8c0.2,0,0.4-0.1,0.5-0.1c1.2,0,2.5,0,3.7,0
	c1.2,0,2.4,0.3,3.4,1.1c2.2,1.8,2.1,4.8-0.2,6.4c-0.7,0.5-1.5,0.8-2.3,0.8c-0.7,0-1.5,0-2.2,0c-0.7,0-0.8,0-0.8,0.7
	c0,1.4,0,2.7,0,4.1C125.5,37.4,125.5,37.6,125.5,37.9z M125.5,30.7c1.1,0,2.2,0.1,3.3-0.2c0.9-0.3,1.6-1.3,1.5-2.2
	c0-0.9-0.7-1.8-1.7-1.9c-1-0.2-2-0.1-3.1-0.1C125.5,27.8,125.5,29.2,125.5,30.7z"/>
<path class="st1" d="M76.6,38.2c-3,0.2-5.3-2.4-5.3-5.3c0.1-2.7,2-5.2,5.2-5.2c3.4,0,5.3,2.9,5.3,5.3C81.8,35.6,79.6,38.3,76.6,38.2
	z M79.4,32.9c0-0.6-0.2-1.2-0.5-1.8c-0.9-1.6-3.5-1.8-4.7-0.1c-0.8,1.2-0.8,2.5-0.1,3.8c0.5,0.8,1.2,1.3,2.2,1.3
	C78.1,36.2,79.4,34.8,79.4,32.9z"/>
<path class="st1" d="M87.9,38.2c-3,0.2-5.3-2.7-5.3-5.3c0-2.2,1.7-5.2,5.2-5.3c3.1,0,5.3,2.6,5.3,5.3C93.1,35.8,90.8,38.3,87.9,38.2
	z M87.5,36.1c1.4,0,2.2-0.5,2.8-1.4c0.7-1.2,0.6-2.8-0.2-3.9c-1.2-1.5-3.6-1.2-4.5,0.1c-0.8,1.2-0.8,2.5-0.1,3.8
	C86,35.6,86.8,36.1,87.5,36.1z"/>
<path class="st1" d="M118.4,31.4c-2.3,1-4.6,1.9-6.9,2.9c0.6,1.1,1.4,1.6,2.6,1.6c1.2,0,1.9-0.6,2.6-1.5c0.6,0.4,1.2,0.8,1.8,1.2
	c-1.1,1.7-2.7,2.4-4.6,2.4c-2.3,0-4.1-1.2-4.8-3.6c-0.6-2-0.2-3.8,1.2-5.4c1.8-2.1,5.4-2,7,0.3C117.7,30,118.1,30.7,118.4,31.4z
	 M115.7,30.7c-0.5-0.9-0.9-1.2-1.8-1.2c-1.2,0-2.5,1-2.8,2.3c-0.1,0.2-0.3,0.5,0.1,0.8C112.7,32,114.2,31.4,115.7,30.7z"/>
<path class="st1" d="M145.7,38.1c-0.7,0-1.3,0-1.9,0c0-0.3-0.1-0.5-0.1-0.7c-0.5,0.3-1,0.6-1.6,0.8c-1.2,0.4-2.4,0.1-3.4-0.6
	c-0.4-0.2-0.7-0.7-0.9-1.1c-0.7-1.8-0.3-3.6,1.8-4.4c1.2-0.5,2.4-0.5,3.7-0.2c0.2,0.1,0.4,0.1,0.6,0.2c0-0.9-0.4-1.5-1.3-1.9
	c-0.6-0.3-1.2-0.2-1.7,0c-0.6,0.2-0.9,0.7-1.3,1.2c-0.6-0.2-1.1-0.5-1.7-0.7c0.1-0.8,0.6-1.2,1.1-1.7c1.5-1.3,4.4-1.2,5.8,0.3
	c0.6,0.6,1,1.4,1,2.3c0.1,2,0,4,0,6C145.8,37.9,145.7,37.9,145.7,38.1z M141.9,33.3c-0.5,0.1-1.1,0.3-1.6,0.5
	c-0.6,0.2-0.9,0.7-0.9,1.3c0,0.6,0.4,0.9,1,1.2c1.2,0.5,3.1-0.3,3.4-1.9c0.1-0.3,0-0.5-0.3-0.6C143,33.6,142.5,33.5,141.9,33.3z"/>
<path class="st1" d="M45.3,19.6c-1.2,1.2-2.3,2.4-3.5,3.6c0,0,0,0,0,0c0,0-0.1,0-0.1,0c-0.1-0.1-0.3-0.2-0.4-0.3
	c-3.6-3.6-7.2-7.2-10.8-10.8c0,0-0.1-0.1-0.1-0.1c0,0,0-0.1,0-0.1c0,0,0,0,0-0.1c0.7-0.2,1.3-0.1,1.9,0.3c1.9,1.1,3.7,2.2,5.6,3.3
	c2.3,1.4,4.7,2.7,7,4.1C45.1,19.4,45.2,19.5,45.3,19.6z"/>
<path class="st1" d="M41.8,25.2c1.2,1.2,2.3,2.3,3.5,3.5c-0.3,0.2-0.6,0.4-1,0.6c-3.7,2.2-7.4,4.3-11.2,6.5
	c-0.7,0.4-1.4,0.8-2.3,0.8c-0.1,0-0.2,0-0.3,0C30.9,36,40.9,25.9,41.8,25.2z"/>
<path class="st1" d="M150.6,42.2c-0.7,0-1.3,0-2.1,0c0.1-0.3,0.2-0.5,0.3-0.8c0.5-1.2,1-2.5,1.6-3.7c0.2-0.4,0.1-0.7,0-1
	c-0.7-1.7-1.5-3.4-2.2-5.1c-0.4-1-0.8-1.9-1.3-3c0.7-0.2,1.3-0.1,2-0.1c0.9,2,1.7,4,2.6,6.1c0.6-1.1,0.9-2.1,1.4-3.1
	c0.4-1,0.9-2,1.3-3c0.7,0,1.3,0,2.1,0C154.4,33.2,152.5,37.7,150.6,42.2z"/>
<path class="st1" d="M107.7,37.8c-0.7,0-1.4,0-2.1,0c-0.2-0.6-0.2-14.8,0-15.5c0.5-0.2,1.4-0.2,2.1,0
	C107.8,22.8,107.8,36.9,107.7,37.8z"/>
<path class="st1" d="M46.5,28c-1.3-1.3-2.5-2.6-3.8-3.9c0,0,0.1-0.2,0.2-0.3c1-1,2-2.1,3.1-3.1c0.4-0.4,0.5-0.4,1-0.1
	c0.6,0.4,1.3,0.7,1.9,1.2c1.8,1.3,1.7,3.8-0.1,4.9C48,27.1,47.2,27.5,46.5,28z"/>
<path class="st1" d="M133.9,24.2c0.7,0,1.4,0,2,0c0,4.6,0,9.2,0,13.8c-0.5,0.2-1.2,0.2-2,0C133.9,33.4,133.9,28.9,133.9,24.2z"/>
<path class="st1" d="M56.1,18.1c0-3.1,0-6.2,0-9.3c0.2,0,0.4-0.1,0.6-0.1c1.1,0,2.2,0,3.3,0.1c1.9,0.3,3,1.5,3.4,3.4
	c0.2,1.1,0.1,2.1-0.3,3.1c-0.5,1.4-1.6,2.2-3,2.5C58.8,18.2,57.5,18,56.1,18.1z M57.2,17.1c1.1,0.1,2.1,0.1,3-0.3
	c1.3-0.4,1.9-1.4,2.1-2.7c0.1-0.6,0.1-1.1,0-1.7c-0.1-1.1-0.6-1.9-1.7-2.4c-1.1-0.5-2.2-0.4-3.4-0.4C57.2,12.2,57.2,14.6,57.2,17.1z
	"/>
<path class="st1" d="M75.8,12c0.9-0.9,1.9-1.2,3-0.9c0.8,0.2,1.4,0.8,1.7,1.6c0.4,1.2,0.4,2.4,0,3.7c-0.6,1.9-2.9,2.4-4.4,1.3
	c-0.1-0.1-0.3-0.2-0.5-0.4c0,1.3,0,2.5,0,3.9c-0.3,0-0.6,0-0.9,0c-0.1-1.6,0-3.3,0-5c0-1.6,0-3.3,0-4.9c0.3-0.1,0.6-0.2,0.8,0.1
	C75.7,11.5,75.7,11.7,75.8,12z M75.8,14.6c0.1,0.5,0.1,1,0.3,1.6c0.2,0.7,0.7,1.1,1.5,1.2c0.8,0.1,1.5-0.1,1.8-0.8
	c0.7-1.2,0.7-2.5,0.1-3.7c-0.4-0.7-1.1-1-1.9-0.9c-0.8,0.1-1.3,0.5-1.5,1.3C75.9,13.6,75.8,14.1,75.8,14.6z"/>
<path class="st1" d="M113.8,14.8c-1.7,0-3.2,0-4.7,0c-0.3,1.5,0.8,2.5,2,2.5c0.6,0,1.1-0.1,1.7-0.2c0.2,0,0.4-0.1,0.6-0.2
	c0.2,0.7,0.2,0.9-0.4,1c-1.1,0.4-2.2,0.4-3.3-0.1c-0.6-0.3-1.1-0.7-1.3-1.3c-0.6-1.4-0.5-2.9,0.3-4.2c0.6-1,1.8-1.5,2.9-1.3
	c1.2,0.2,1.9,0.9,2.1,2.1C113.7,13.6,113.7,14.1,113.8,14.8z M112.6,13.9c0.1-1.3-0.8-2.2-1.8-2.1c-1,0.1-1.7,0.8-1.7,2
	c0.1,0,0.2,0.1,0.3,0.1C110.4,13.9,111.5,13.9,112.6,13.9z"/>
<path class="st1" d="M134.1,13.8c0-0.4,0-0.7-0.1-1c-0.1-0.6-0.6-0.9-1.2-0.9c-0.5,0-1,0.1-1.4,0.2c-0.2,0-0.4,0.1-0.7,0.3
	c-0.1-0.2-0.2-0.5-0.3-0.8c1.2-0.6,2.3-0.8,3.5-0.4c0.6,0.2,0.9,0.6,1.1,1.2c0.1,0.3,0.1,0.6,0.1,0.9c0,1.4,0,2.9,0,4.4
	c0,0.1,0,0.2,0,0.3c-0.7,0.1-0.7,0.1-1-0.7c-0.1,0.1-0.3,0.2-0.4,0.4c-0.9,0.8-2.4,0.9-3.3,0.3c-1-0.7-1.1-2.5,0-3.2
	c0.5-0.3,1-0.5,1.6-0.6C132.6,13.9,133.3,13.9,134.1,13.8z M134,14.7c-0.9-0.1-1.8,0-2.6,0.3c-0.5,0.2-0.8,0.8-0.7,1.3
	c0.1,0.5,0.4,0.9,0.9,0.9C133,17.5,134.4,16.8,134,14.7z"/>
<path class="st1" d="M82.3,14.6c0-0.9,0.2-1.8,0.8-2.5c1.2-1.6,4.4-1.5,5.3,0.9c0.4,1.1,0.4,2.3,0,3.4c-0.5,1.4-1.7,2-3.1,1.9
	c-1.3-0.1-2.4-0.9-2.7-2.3C82.4,15.5,82.4,15,82.3,14.6z M83.4,14.6c0.1,0.4,0.1,0.9,0.3,1.3c0.3,1,1,1.5,2.1,1.4
	c0.9,0,1.6-0.7,1.8-1.6c0.2-0.7,0.2-1.4,0-2.2c-0.2-1-0.9-1.7-1.9-1.7c-1.1,0-1.8,0.5-2.1,1.6C83.5,13.8,83.4,14.2,83.4,14.6z"/>
<path class="st1" d="M96.1,18c-0.3,0-0.5,0-0.9,0c0-0.3,0-0.6,0-0.8c0-1.3,0-2.6,0-3.9c0-0.9-0.5-1.4-1.4-1.4c-0.1,0-0.3,0-0.4,0
	c-1,0.1-1.5,0.5-1.7,1.5c-0.1,0.4-0.1,0.7-0.1,1.1c0,0.9,0,1.9,0,2.8c0,0.2,0,0.5,0,0.8c-0.3,0-0.6,0-0.9,0c0-2.3,0-4.5,0-6.8
	c0.2,0,0.5,0,0.7-0.1c0.1,0.3,0.2,0.5,0.3,0.8c0.1-0.1,0.2-0.2,0.3-0.2c1-0.9,2.1-1,3.2-0.5c0.7,0.3,1.1,0.9,1.1,1.6
	c0,1.7,0,3.4,0,5.1C96.2,17.9,96.2,17.9,96.1,18z"/>
<path class="st1" d="M123.1,18c-0.3,0-0.5,0-0.8,0c-0.2-0.5-0.2-5.7-0.1-6.9c0.2,0,0.4,0,0.7-0.1c0.1,0.3,0.2,0.5,0.3,0.9
	c0.1-0.1,0.3-0.2,0.4-0.3c0.6-0.7,2.1-1,3.3-0.4c0.7,0.3,1,0.9,1,1.6c0,1.7,0,3.4,0,5.1c-0.3,0-0.6,0-0.9,0c0-0.2,0-0.4,0-0.6
	c0-1.2,0-2.3,0-3.5c0-0.2,0-0.4,0-0.7c-0.1-0.8-0.5-1.3-1.3-1.4c-1.3-0.2-2.1,0.4-2.3,1.7c-0.1,0.4-0.1,0.7-0.1,1.1
	c0,1.1,0,2.1,0,3.2C123.1,17.9,123.1,17.9,123.1,18z"/>
<path class="st1" d="M73,11.4c-0.2,0.3-0.3,0.5-0.4,0.7c-0.7-0.1-1.4-0.2-2.1-0.3c-0.3,0-0.5,0-0.8,0.1c-0.6,0.2-0.8,0.9-0.3,1.4
	c0.3,0.3,0.7,0.4,1,0.6c0.5,0.2,1,0.4,1.6,0.7c0.8,0.4,1.1,1,1,1.9c-0.1,0.7-0.6,1.3-1.4,1.6c-0.9,0.3-1.8,0.3-2.7,0
	c-0.8-0.2-0.9-0.3-0.7-1.2c0.4,0.1,0.7,0.3,1.1,0.4c0.5,0.1,1.1,0.1,1.7,0.1c0.1,0,0.2-0.1,0.3-0.1c0.4-0.1,0.7-0.3,0.7-0.8
	c0-0.4-0.1-0.8-0.5-1c-0.4-0.2-0.9-0.4-1.3-0.6c-0.4-0.2-0.8-0.4-1.2-0.6c-0.6-0.3-0.9-0.9-0.8-1.5c0-0.6,0.3-1.1,0.9-1.4
	C70.4,10.7,71.6,10.9,73,11.4z"/>
<path class="st1" d="M103.9,17c0.5-1.3,0.9-2.5,1.4-3.8c0.2-0.5,0.4-1,0.5-1.5c0.2-0.6,0.2-0.6,0.9-0.6c0.1,0,0.2,0,0.3,0
	c-0.1,0.6-1.9,5.6-2.5,6.9c-0.3,0-0.7,0-1.2,0c-0.8-2.2-1.7-4.5-2.6-6.8c0.4,0,0.7,0,1.1,0C102.4,13.1,103.1,15,103.9,17z"/>
<path class="st1" d="M116.5,18c-0.4,0-0.7,0-0.9,0c-0.1-0.6-0.2-8.7-0.1-9.8c0.3,0,0.5,0,0.9,0c0.1,0.8,0,1.6,0,2.4
	c0,0.8,0,1.7,0,2.5c0,0.8,0,1.6,0,2.4C116.5,16.3,116.5,17.2,116.5,18z"/>
<path class="st1" d="M66.3,18c-0.3,0-0.6,0-0.8,0c-0.1-0.6-0.2-5.8-0.1-6.8c0.3,0,0.5,0,0.8,0C66.4,11.7,66.5,17.1,66.3,18z"/>
<path class="st1" d="M98.5,18.1c0-2.3,0-4.6,0-6.9c0.3,0,0.6,0,0.9,0c0.1,0.5,0.2,5.8,0,6.9C99.2,18,98.9,18,98.5,18.1z"/>
<path class="st1" d="M100.8,8.3c-0.4,0.8-1,1.3-1.6,1.8c-0.1,0.1-0.4,0.1-0.7,0.1c0.1-0.3,0.1-0.4,0.2-0.5c0.2-0.3,0.4-0.6,0.6-0.9
	C99.7,8.1,99.8,8,100.8,8.3z"/>
<path class="st1" d="M66.4,9.2c0,0.4-0.2,0.7-0.6,0.7c-0.4,0-0.6-0.3-0.6-0.7c0-0.4,0.2-0.6,0.6-0.6C66.3,8.6,66.4,8.8,66.4,9.2z"/>
</svg>
